# xmcd CD database file
#
# Track frame offsets:
#	150
#	11369
#	38657
#	68592
#	108983
#	157614
#	180492
#
# Disc length: 3014 seconds
#
# Revision: 0
# Processed by: cddbd v1.5.2PL0 Copyright (c) Steve Scherf et al.
# Submitted via: CDex 1.51
#
DISCID=3f0bc407
DTITLE=Gregory Porter - Olympia Paris - Blue Note Festival (2|2)
DYEAR=2014
DGENRE=Jazz
TTITLE0=Gregory Porter - (I Love You) For Sentimental Reasons
TTITLE1=Gregory Porter - Movin'
TTITLE2=Gregory Porter - Lonesome Lover
TTITLE3=Gregory Porter - Be Good (Lion's Song)
TTITLE4=Gregory Porter - 1960 What?
TTITLE5=Gregory Porter - Water Under Bridges
TTITLE6=Gregory Porter - Musical Genocide
EXTD=YEAR: 2014
EXTT0=
EXTT1=
EXTT2=
EXTT3=
EXTT4=
EXTT5=
EXTT6=
PLAYORDER=
